<svg width="40" height="40" viewBox="0 0 40 40" fill="none" xmlns="http://www.w3.org/2000/svg">
<circle cx="20" cy="20" r="19.5" stroke="#996830"/>
<g clip-path="url(#clip0_296420_834)">
<path d="M19.9795 11.8013C22.6449 11.8013 22.9577 11.8132 24.0112 11.8607C24.9855 11.9043 25.5122 12.0667 25.8647 12.2053C26.332 12.3875 26.6647 12.6013 27.0132 12.9498C27.3617 13.2983 27.5795 13.631 27.7577 14.0983C27.8924 14.4508 28.0587 14.9776 28.1023 15.9518C28.1498 17.0053 28.1617 17.3181 28.1617 19.9835C28.1617 22.6488 28.1498 22.9617 28.1023 24.0152C28.0587 24.9894 27.8964 25.5162 27.7577 25.8686C27.5756 26.336 27.3617 26.6686 27.0132 27.0172C26.6647 27.3657 26.332 27.5835 25.8647 27.7617C25.5122 27.8964 24.9855 28.0627 24.0112 28.1063C22.9577 28.1538 22.6449 28.1657 19.9795 28.1657C17.3142 28.1657 17.0013 28.1538 15.9478 28.1063C14.9736 28.0627 14.4469 27.9003 14.0944 27.7617C13.6271 27.5795 13.2944 27.3657 12.9459 27.0172C12.5974 26.6686 12.3795 26.336 12.2013 25.8686C12.0667 25.5162 11.9003 24.9894 11.8568 24.0152C11.8092 22.9617 11.7974 22.6488 11.7974 19.9835C11.7974 17.3181 11.8092 17.0053 11.8568 15.9518C11.9003 14.9776 12.0627 14.4508 12.2013 14.0983C12.3835 13.631 12.5974 13.2983 12.9459 12.9498C13.2944 12.6013 13.6271 12.3835 14.0944 12.2053C14.4469 12.0706 14.9736 11.9043 15.9478 11.8607C17.0013 11.8092 17.3142 11.8013 19.9795 11.8013ZM19.9795 10.0033C17.2706 10.0033 16.93 10.0152 15.8647 10.0627C14.8033 10.1102 14.0785 10.2805 13.4449 10.5261C12.7875 10.7795 12.233 11.1241 11.6785 11.6785C11.1241 12.233 10.7835 12.7914 10.5261 13.4449C10.2805 14.0785 10.1102 14.8033 10.0627 15.8686C10.0152 16.93 10.0033 17.2706 10.0033 19.9795C10.0033 22.6884 10.0152 23.029 10.0627 24.0944C10.1102 25.1558 10.2805 25.8805 10.5261 26.5182C10.7795 27.1756 11.1241 27.73 11.6785 28.2845C12.233 28.8389 12.7914 29.1795 13.4449 29.437C14.0785 29.6825 14.8033 29.8528 15.8686 29.9003C16.934 29.9479 17.2706 29.9597 19.9835 29.9597C22.6964 29.9597 23.033 29.9479 24.0983 29.9003C25.1597 29.8528 25.8845 29.6825 26.5221 29.437C27.1795 29.1835 27.734 28.8389 28.2884 28.2845C28.8429 27.73 29.1835 27.1716 29.4409 26.5182C29.6865 25.8845 29.8568 25.1597 29.9043 24.0944C29.9518 23.029 29.9637 22.6924 29.9637 19.9795C29.9637 17.2667 29.9518 16.93 29.9043 15.8647C29.8568 14.8033 29.6865 14.0785 29.4409 13.4409C29.1875 12.7835 28.8429 12.229 28.2884 11.6746C27.734 11.1201 27.1756 10.7795 26.5221 10.5221C25.8884 10.2766 25.1637 10.1063 24.0983 10.0587C23.029 10.0152 22.6884 10.0033 19.9795 10.0033Z" fill="#996830"/>
<path d="M19.9795 14.8549C17.1518 14.8549 14.8548 17.1479 14.8548 19.9796C14.8548 22.8113 17.1518 25.1044 19.9795 25.1044C22.8072 25.1044 25.1043 22.8073 25.1043 19.9796C25.1043 17.1519 22.8072 14.8549 19.9795 14.8549ZM19.9795 23.3063C18.1419 23.3063 16.6528 21.8172 16.6528 19.9796C16.6528 18.142 18.1419 16.6529 19.9795 16.6529C21.8171 16.6529 23.3062 18.142 23.3062 19.9796C23.3062 21.8172 21.8171 23.3063 19.9795 23.3063Z" fill="#996830"/>
<path d="M25.3063 15.849C25.9668 15.849 26.5023 15.3135 26.5023 14.6529C26.5023 13.9924 25.9668 13.4569 25.3063 13.4569C24.6457 13.4569 24.1102 13.9924 24.1102 14.6529C24.1102 15.3135 24.6457 15.849 25.3063 15.849Z" fill="#996830"/>
</g>
<defs>
<clipPath id="clip0_296420_834">
<rect width="20" height="20" fill="white" transform="translate(10 10)"/>
</clipPath>
</defs>
</svg>
